<svg preserveAspectRatio="none" width="100%" height="100%" overflow="visible" style="display: block;" viewBox="0 0 22 22" fill="none" xmlns="http://www.w3.org/2000/svg">
<g id="arrow_slider">
<path id="Vector" d="M8.98047 8.35742C8.92318 8.30013 8.85872 8.25716 8.78711 8.22852C8.71549 8.19987 8.63672 8.18555 8.55078 8.18555C8.4362 8.18555 8.32878 8.21419 8.22852 8.27148C8.12826 8.32878 8.04948 8.40039 7.99219 8.48633L5.67188 11.3652C5.61458 11.4225 5.57161 11.487 5.54297 11.5586C5.51432 11.6302 5.5 11.709 5.5 11.7949C5.5 11.8809 5.51432 11.9668 5.54297 12.0527C5.57161 12.1387 5.61458 12.2103 5.67188 12.2676L7.99219 15.1035C8.04948 15.1895 8.12826 15.2539 8.22852 15.2969C8.32878 15.3398 8.4362 15.3613 8.55078 15.3613C8.7513 15.3613 8.91602 15.2969 9.04492 15.168C9.17383 15.0391 9.23828 14.8743 9.23828 14.6738C9.23828 14.5879 9.22396 14.502 9.19531 14.416C9.16667 14.3301 9.13802 14.2585 9.10938 14.2012L7.73438 12.5254H15.7695C15.9701 12.5254 16.1419 12.4538 16.2852 12.3105C16.4284 12.1673 16.5 11.9954 16.5 11.7949C16.5 11.5944 16.4284 11.4297 16.2852 11.3008C16.1419 11.1719 15.9701 11.1074 15.7695 11.1074H7.73438L9.10938 9.38867C9.13802 9.30273 9.16667 9.22396 9.19531 9.15234C9.22396 9.08073 9.23828 9.00195 9.23828 8.91602C9.23828 8.80143 9.2168 8.69401 9.17383 8.59375C9.13086 8.49349 9.06641 8.41471 8.98047 8.35742Z" fill="var(--fill-0, black)"/>
</g>
</svg>
