<svg preserveAspectRatio="none" width="100%" height="100%" overflow="visible" style="display: block;" viewBox="0 0 20 20" fill="none" xmlns="http://www.w3.org/2000/svg">
<g id="catalog">
<path id="Vector" d="M6.66667 2.5H4.16667C3.24619 2.5 2.5 3.24619 2.5 4.16667V6.66667C2.5 7.58714 3.24619 8.33333 4.16667 8.33333H6.66667C7.58714 8.33333 8.33333 7.58714 8.33333 6.66667V4.16667C8.33333 3.24619 7.58714 2.5 6.66667 2.5Z" fill="var(--fill-0, white)" stroke="var(--stroke-0, white)"/>
<path id="Vector_2" d="M6.66667 11.667H4.16667C3.24619 11.667 2.5 12.4132 2.5 13.3337V15.8337C2.5 16.7541 3.24619 17.5003 4.16667 17.5003H6.66667C7.58714 17.5003 8.33333 16.7541 8.33333 15.8337V13.3337C8.33333 12.4132 7.58714 11.667 6.66667 11.667Z" fill="var(--fill-0, white)" stroke="var(--stroke-0, white)"/>
<path id="Vector_3" d="M15.8307 2.5H13.3307C12.4103 2.5 11.6641 3.24619 11.6641 4.16667V6.66667C11.6641 7.58714 12.4103 8.33333 13.3307 8.33333H15.8307C16.7512 8.33333 17.4974 7.58714 17.4974 6.66667V4.16667C17.4974 3.24619 16.7512 2.5 15.8307 2.5Z" fill="var(--fill-0, white)" stroke="var(--stroke-0, white)"/>
<path id="Vector_4" d="M15.8307 11.667H13.3307C12.4103 11.667 11.6641 12.4132 11.6641 13.3337V15.8337C11.6641 16.7541 12.4103 17.5003 13.3307 17.5003H15.8307C16.7512 17.5003 17.4974 16.7541 17.4974 15.8337V13.3337C17.4974 12.4132 16.7512 11.667 15.8307 11.667Z" fill="var(--fill-0, white)" stroke="var(--stroke-0, white)"/>
</g>
</svg>
