<svg preserveAspectRatio="none" width="100%" height="100%" overflow="visible" style="display: block;" viewBox="0 0 20 20" fill="none" xmlns="http://www.w3.org/2000/svg">
<g id="Container">
<path id="Subtract" d="M10 0C15.5228 0 20 4.47715 20 10C20 15.5228 15.5228 20 10 20C4.47715 20 0 15.5228 0 10C0 4.47715 4.47715 0 10 0ZM7.20117 5V9.7998H6.15234V11.5283H7.20117V12.3145H6.15234V13.5713H7.20117V15H9.11719V13.5713H12.2354V12.3145H9.11719V11.5283H10.8516C11.7931 11.5282 12.5766 11.2237 13.2012 10.6143C13.835 9.99529 14.1523 9.22857 14.1523 8.31445C14.1523 7.40017 13.8299 6.6193 13.1865 5.97168C12.5526 5.32417 11.7745 5.0001 10.8516 5H7.20117ZM10.8516 6.84277C11.243 6.84287 11.5691 6.98588 11.8301 7.27148C12.1005 7.54767 12.2354 7.89541 12.2354 8.31445C12.2353 8.73336 12.1004 9.08544 11.8301 9.37109C11.5691 9.65671 11.243 9.79971 10.8516 9.7998H9.11719V6.84277H10.8516Z" fill="var(--fill-0, #76829B)"/>
</g>
</svg>
