<svg preserveAspectRatio="none" width="100%" height="100%" overflow="visible" style="display: block;" viewBox="0 0 14 14" fill="none" xmlns="http://www.w3.org/2000/svg">
<g id="subscribes.svg">
<path id="Vector" d="M6.87357 0.732242C7.54694 0.706467 8.10913 0.965838 8.7088 1.23881L9.6118 1.65412C10.0218 1.84361 10.439 2.03333 10.8463 2.22858C11.3021 2.45284 11.7794 2.66781 12.1763 2.98941C12.4502 3.21453 12.6535 3.48984 12.6827 3.85321C12.7307 4.45163 12.2836 4.85283 11.8186 5.13673C11.5129 5.32334 11.1845 5.48474 10.8601 5.63933L9.77186 6.14634L8.76814 6.60865C8.25372 6.843 7.70828 7.09999 7.13881 7.14368C6.44111 7.17052 5.87645 6.90315 5.25506 6.61954L4.37208 6.21276L3.30436 5.71775C2.82453 5.49332 2.23331 5.21518 1.82169 4.88595C1.55322 4.66321 1.34889 4.3967 1.31691 4.03675C1.23334 3.09589 2.35605 2.60952 3.0559 2.27345C3.43371 2.09362 3.81291 1.91673 4.19345 1.74278L5.19269 1.28163C5.73296 1.03488 6.27355 0.778712 6.87357 0.732242Z" fill="var(--fill-0, #8A94A6)"/>
<path id="Vector_2" d="M2.15412 5.77287C2.2271 5.76725 2.28907 5.76702 2.36116 5.7835C2.50974 5.81777 2.63841 5.91011 2.71843 6.03989C2.83539 6.22992 2.82874 6.48731 2.7057 6.67996C2.6493 6.76825 2.48027 6.88078 2.4605 6.96561C2.49894 7.1628 3.40618 7.5993 3.59329 7.69013C4.00098 7.88513 4.40994 8.07747 4.82014 8.26717C5.12487 8.41075 5.43044 8.55262 5.73685 8.69262C7.00949 9.27665 7.10747 9.22594 8.36466 8.64579L9.28804 8.21654C9.65243 8.04776 10.0157 7.87642 10.3777 7.70248C10.7374 7.52755 11.3054 7.26808 11.556 6.96499C11.4991 6.87881 11.3995 6.80517 11.3308 6.72673C11.2285 6.60987 11.1891 6.45083 11.2011 6.29942C11.2248 5.9774 11.5036 5.73342 11.828 5.77271C11.9881 5.78904 12.1059 5.87428 12.2209 5.98082C12.5401 6.27641 12.7294 6.65677 12.679 7.10061C12.5875 7.88583 11.7888 8.29058 11.1613 8.61383C10.7463 8.82756 10.312 9.02185 9.88942 9.22065C9.54238 9.38476 9.19424 9.54701 8.84549 9.70738C7.21768 10.4584 6.83998 10.4825 5.1972 9.72582C4.84856 9.56544 4.50089 9.40312 4.15418 9.23869C3.77505 9.06043 3.38839 8.89103 3.0098 8.69728C2.36311 8.36097 1.49349 7.98919 1.33493 7.1927C1.24107 6.72122 1.45075 6.27265 1.79676 5.96311C1.9171 5.85545 1.995 5.80194 2.15412 5.77287Z" fill="var(--fill-0, #8A94A6)"/>
<path id="Vector_3" d="M2.17705 8.76252C2.24248 8.75957 2.30327 8.76182 2.36722 8.77761C2.51678 8.81432 2.6452 8.90991 2.72337 9.0426C2.8347 9.23137 2.82546 9.49177 2.70034 9.6782C2.64367 9.76259 2.48173 9.8728 2.45993 9.95664C2.50102 10.2331 4.48439 11.1038 4.8255 11.2634L5.72696 11.6821C6.00784 11.8112 6.27928 11.9352 6.57371 12.0303C6.936 12.1473 7.24341 12.1073 7.59121 11.9737C7.85735 11.8713 8.11004 11.7563 8.36928 11.6366L9.30012 11.203C9.65627 11.0385 10.0111 10.8709 10.3644 10.7005C10.7125 10.5317 11.3206 10.2531 11.5541 9.95742C11.437 9.78421 11.2706 9.73459 11.2158 9.49869C11.1277 9.13407 11.3654 8.7703 11.7541 8.76081C12.0322 8.75397 12.2435 8.9754 12.4068 9.17614C12.6187 9.43647 12.7174 9.76757 12.6765 10.1014C12.589 10.9098 11.6828 11.3413 11.0411 11.666C10.6588 11.8593 10.2604 12.0381 9.87187 12.2202C9.53501 12.38 9.1973 12.5378 8.85858 12.6935C7.2484 13.4374 6.85537 13.4838 5.22976 12.7333C4.90856 12.5863 4.58844 12.437 4.26938 12.2854C3.8596 12.0981 3.45211 11.9058 3.04703 11.7084C2.38793 11.3858 1.45267 10.9565 1.32678 10.1428C1.27314 9.80194 1.373 9.45296 1.58579 9.18299C1.74107 8.98598 1.91732 8.79916 2.17705 8.76252Z" fill="var(--fill-0, #8A94A6)"/>
</g>
</svg>
