<svg preserveAspectRatio="none" width="100%" height="100%" overflow="visible" style="display: block;" viewBox="0 0 14 14" fill="none" xmlns="http://www.w3.org/2000/svg">
<g id="items.svg">
<path id="Vector" d="M12.1233 0.768055C12.1365 0.766702 12.1496 0.765731 12.1627 0.765143C12.2857 0.759751 12.4037 0.798413 12.4943 0.883214C12.5814 0.964741 12.6267 1.07679 12.628 1.19538C12.6293 1.31196 12.037 3.67114 11.9886 3.74787C11.8951 3.89622 11.6106 4.12207 11.4712 4.24832L10.7058 4.94382L7.34234 8.00102L6.32056 8.92961C6.14952 9.08501 5.90914 9.29244 5.75174 9.45499C5.83845 9.52671 5.92247 9.62471 6.0021 9.69743C6.3326 9.99936 6.59356 10.4076 6.63502 10.8611C6.64617 11.1435 6.71491 11.5392 6.52018 11.7718C6.30262 12.0318 5.95094 12.0637 5.68763 11.8523C5.42386 11.6394 5.49869 11.3142 5.47796 11.0197C5.46771 10.8741 5.39909 10.7463 5.29553 10.6451C5.14197 10.4952 4.99304 10.331 4.83682 10.1849C4.70825 10.0646 4.57207 9.90128 4.43708 9.79341L4.4292 9.78718L3.62408 10.592C3.53863 10.6774 3.29873 10.9047 3.23505 10.9892C3.30458 11.3514 3.34322 11.593 3.17384 11.9582C3.02539 12.276 2.75702 12.5221 2.42751 12.6424C2.06135 12.776 1.71831 12.7329 1.37247 12.5697C1.16059 12.4477 1.00337 12.3139 0.871422 12.1043C0.686388 11.8085 0.6269 11.451 0.706124 11.1111C0.784101 10.7705 0.994163 10.4749 1.29011 10.2893C1.65549 10.0619 2.0072 10.0629 2.40581 10.1574C2.6417 9.94111 2.89392 9.65628 3.13254 9.43166C3.20572 9.36275 3.55591 9.01337 3.58998 8.96243C3.56886 8.87944 2.82572 8.19593 2.71592 8.06977C2.46231 7.77849 1.97899 8.02941 1.65148 7.80315C1.23305 7.51404 1.3644 6.85667 1.86214 6.7531C2.43514 6.676 3.07796 6.79485 3.50737 7.20877C3.65005 7.34632 3.77582 7.47837 3.92148 7.60895C3.96489 7.64423 4.04191 7.52628 4.07125 7.49349L5.28924 6.15469L8.66448 2.44347C8.82936 2.26326 9.49942 1.48157 9.6479 1.39728C9.74901 1.33987 9.90643 1.31794 10.0201 1.28951L10.5919 1.1468L11.5479 0.907722C11.7309 0.861841 11.9397 0.804363 12.1233 0.768055Z" fill="var(--fill-0, #8A94A6)"/>
<path id="Vector_2" d="M11.7086 6.73963C11.809 6.73699 11.9093 6.7366 12.0096 6.73845C12.3631 6.74802 12.6342 6.96025 12.6352 7.34135C12.6355 7.45774 12.5847 7.58326 12.5172 7.67695C12.236 8.068 11.7697 7.79313 11.4166 7.99364C11.3258 8.04614 11.157 8.2311 11.0724 8.31245C10.8586 8.51825 10.6461 8.75244 10.4285 8.95288C10.6624 9.19889 10.921 9.44715 11.1609 9.6892C11.2907 9.81994 11.5038 10.0453 11.6355 10.1559C11.8889 10.0946 12.0922 10.069 12.3533 10.1296C12.6945 10.2091 12.9895 10.4221 13.1723 10.7209C13.3533 11.0187 13.4092 11.376 13.3277 11.7149C13.2451 12.0541 13.0314 12.3467 12.7334 12.5284C12.4363 12.7109 12.0782 12.7662 11.7399 12.6818C11.4002 12.597 11.1079 12.3813 10.9265 12.0819C10.7115 11.726 10.7073 11.375 10.8046 10.986C10.6233 10.8008 10.4355 10.6164 10.252 10.4329L9.60615 9.78774C9.56478 9.82103 9.50372 9.88201 9.46553 9.91996L8.98557 10.3989C8.88959 10.4944 8.78933 10.5905 8.69895 10.6911C8.38831 11.0366 8.72999 11.4802 8.37416 11.8271C8.26262 11.9343 8.11313 11.9933 7.95835 11.991C7.80467 11.9884 7.65147 11.917 7.54498 11.8067C7.35849 11.6137 7.38229 11.3684 7.38548 11.1245C7.39615 10.3106 7.73743 9.97736 8.28082 9.45244C8.09594 9.24065 7.79946 9.0571 7.64153 8.83045C7.58961 8.75594 8.06468 8.36511 8.13211 8.30289L8.96293 7.54245C9.10814 7.40987 9.36948 7.13622 9.53973 7.05737C9.60864 7.02545 10.0346 7.55698 10.1032 7.62841C10.6298 7.08635 10.9134 6.78109 11.7086 6.73963Z" fill="var(--fill-0, #8A94A6)"/>
<path id="Vector_3" d="M1.76864 0.76888C1.94989 0.756458 2.19651 0.835899 2.3766 0.881026L3.09932 1.06201L3.84257 1.2473C3.98111 1.28177 4.33852 1.35156 4.43913 1.43667C4.55755 1.53684 4.70932 1.7119 4.82086 1.83159L5.42654 2.47844L6.04741 3.14234C6.15814 3.26033 6.2734 3.38053 6.37962 3.50279C6.39604 3.52171 6.40308 3.55125 6.40449 3.5751C6.40605 3.60146 6.36247 3.66262 6.34439 3.68294C6.2181 3.82506 6.08335 3.96625 5.95382 4.10516L5.19081 4.92303L4.72857 5.42024C4.63157 5.52516 4.5358 5.63199 4.43492 5.73315C4.38749 5.78071 4.32187 5.83205 4.25521 5.78153C4.18261 5.7265 4.1138 5.65957 4.04597 5.59805L3.58927 5.18242L2.73112 4.40217C2.61425 4.29654 2.10435 3.85651 2.03892 3.74365C1.98804 3.65592 1.87583 3.1417 1.84362 3.01271L1.45101 1.44296C1.40728 1.26352 1.36825 1.13149 1.4737 0.964225C1.54773 0.846765 1.6377 0.798348 1.76864 0.76888Z" fill="var(--fill-0, #8A94A6)"/>
</g>
</svg>
