<svg preserveAspectRatio="none" width="100%" height="100%" overflow="visible" style="display: block;" viewBox="0 0 14 14" fill="none" xmlns="http://www.w3.org/2000/svg">
<g id="keys.svg">
<path id="Vector" d="M8.86427 1.02443C9.31437 1.00438 9.76478 1.06134 10.1957 1.19285C11.1956 1.49989 12.0325 2.19144 12.5225 3.11544C13.0094 4.03678 13.1117 5.11333 12.8074 6.10994C12.4977 7.11481 11.8008 7.9551 10.8706 8.44541C10.0944 8.856 9.20245 8.99296 8.33888 8.83398C8.10555 8.79136 7.93031 8.73715 7.70539 8.66808C7.55595 8.80116 7.36161 9.00696 7.21614 9.15256L6.31852 10.0513C6.15262 10.2173 5.98794 10.3898 5.81287 10.5455C5.67522 10.6679 5.48477 10.6506 5.31127 10.6489C5.15563 10.6475 4.9671 10.6629 4.81404 10.6445C4.81189 10.8434 4.8147 11.0559 4.81525 11.2543C4.81696 11.8686 4.43155 11.8166 3.96589 11.8152C3.86783 11.8171 3.74216 11.8231 3.64738 11.8112C3.64461 12.0791 3.67273 12.4062 3.62442 12.6632C3.57567 12.9226 3.31135 12.9799 3.09561 12.9815L1.98086 12.9827C1.79266 12.983 1.57303 12.9904 1.38649 12.9711C1.30211 12.9573 1.20585 12.91 1.1468 12.85C0.976512 12.6768 1.02046 12.3617 1.02137 12.1313L1.02175 11.4266C1.02194 10.5481 1.29872 10.3275 1.88716 9.73978L2.6056 9.02158L5.33323 6.29448C5.22064 5.91512 5.13695 5.62794 5.11349 5.2258C4.98234 2.97919 6.63177 1.15878 8.86427 1.02443ZM9.68716 4.80525C9.95207 4.74027 10.0848 4.51005 10.2825 4.33356C10.3864 4.24096 10.5084 4.11221 10.5881 3.99869C10.762 3.67673 10.5038 3.31899 10.1462 3.36507C10.0423 3.38144 9.95572 3.42039 9.88495 3.49892C9.708 3.69543 9.42543 3.91478 9.27252 4.12273C9.20408 4.21559 9.17639 4.33235 9.19599 4.44607C9.21489 4.56221 9.2803 4.66562 9.37729 4.73232C9.47381 4.79906 9.57306 4.81277 9.68716 4.80525Z" fill="var(--fill-0, #8A94A6)"/>
</g>
</svg>
