<svg preserveAspectRatio="none" width="100%" height="100%" overflow="visible" style="display: block;" viewBox="0 0 14 14" fill="none" xmlns="http://www.w3.org/2000/svg">
<g id="other.svg">
<path id="Vector" d="M6.81184 1.90056C7.85368 1.87021 8.79137 2.16422 9.60135 2.83194C10.4301 3.51479 10.9546 4.49793 11.0605 5.56645C11.2346 5.65446 11.4513 5.73505 11.6353 5.82469C12.2154 6.1072 12.7926 6.44058 13.2737 6.87374C13.5735 7.14352 13.8308 7.38397 13.8527 7.81435C13.8661 8.07032 13.7817 8.32185 13.6166 8.51793C13.3052 8.88154 12.0766 9.428 11.5867 9.59997C11.4244 9.65698 11.1477 9.73826 11.0066 9.80398C10.973 9.81962 10.7662 10.1414 10.7249 10.1982C10.6401 10.3159 10.5497 10.4294 10.4539 10.5382C9.62974 11.477 8.46035 12.0415 7.2127 12.1029C6.76844 12.1135 6.40371 12.0888 5.96657 11.9869C4.92915 11.7448 4.00708 11.1521 3.35614 10.3088C3.22479 10.1397 3.12721 9.98668 3.01527 9.80663C2.95387 9.77536 2.88444 9.75522 2.81889 9.73445C2.13644 9.52227 1.4803 9.23317 0.863049 8.87298C0.745386 8.8029 0.575901 8.70249 0.475283 8.61297C0.384422 8.5313 0.309377 8.43369 0.253905 8.32488C0.134315 8.09077 0.117394 7.7984 0.198223 7.54934C0.407178 6.90535 1.65353 6.17475 2.25387 5.87606C2.47571 5.76568 2.71052 5.68181 2.93075 5.57048C2.97038 5.4058 2.98715 5.20509 3.03234 5.01573C3.18741 4.37624 3.49461 3.78366 3.9278 3.28835C4.69004 2.42877 5.66939 1.96895 6.81184 1.90056ZM7.04024 5.97844C8.07605 5.95797 8.8886 5.88778 9.88773 5.5973C9.8007 4.85942 9.39711 4.15869 8.8158 3.6987C8.28924 3.27835 7.63252 3.055 6.9589 3.06718C6.15795 3.08574 5.44061 3.39143 4.88548 3.97139C4.55187 4.3222 4.31143 4.75099 4.1861 5.2186C4.1511 5.34924 4.13518 5.46149 4.10795 5.59162C4.9827 5.8653 6.12061 5.99181 7.04024 5.97844ZM8.74502 10.4558C8.8746 10.376 9.00161 10.2921 9.12597 10.2045C8.1725 10.3414 7.20803 10.3863 6.24597 10.3382C5.95249 10.3212 5.65947 10.2969 5.36718 10.2656C5.29487 10.2574 4.9467 10.2067 4.89842 10.2101C4.932 10.2517 5.08103 10.3486 5.13154 10.3811C5.57445 10.6717 6.0795 10.854 6.60589 10.9132C7.22 10.9846 7.84202 10.8884 8.40575 10.6345C8.49706 10.593 8.66172 10.5117 8.74502 10.4558ZM10.0137 8.35802C10.2801 8.30466 10.453 8.0455 10.3999 7.77896C10.3467 7.51242 10.0875 7.3394 9.82107 7.39242C9.5543 7.44549 9.38108 7.70484 9.43428 7.97162C9.48748 8.23832 9.74695 8.41137 10.0137 8.35802ZM4.18032 8.35802C4.44682 8.30466 4.61971 8.0455 4.56653 7.77896C4.51335 7.51242 4.25426 7.3394 3.98769 7.39242C3.72092 7.44549 3.54772 7.70484 3.60094 7.97162C3.65414 8.23832 3.9136 8.41137 4.18032 8.35802ZM7.09698 8.64968C7.36347 8.59633 7.53634 8.33717 7.48316 8.07063C7.43 7.80408 7.17091 7.6311 6.90436 7.6841C6.63757 7.73715 6.46437 7.9965 6.51758 8.26328C6.5708 8.52998 6.83026 8.70304 7.09698 8.64968Z" fill="var(--fill-0, #8A94A6)"/>
</g>
</svg>
