<svg preserveAspectRatio="none" width="100%" height="100%" overflow="visible" style="display: block;" viewBox="0 0 14 14" fill="none" xmlns="http://www.w3.org/2000/svg">
<g id="accounts.svg">
<path id="Vector" d="M3.92286 7.73307C3.98889 7.72958 4.0678 7.72926 4.1346 7.72905L5.707 7.72902C6.0334 7.72891 6.45225 7.71667 6.76994 7.74783C7.53236 7.8276 8.24416 8.1671 8.78596 8.70936C9.35 9.27006 9.69534 10.0139 9.7595 10.8065C9.77654 11.0065 9.77242 11.2012 9.77203 11.4016L9.77382 12.0605C9.77483 12.6586 9.56428 12.6906 9.03477 12.6908L8.496 12.6909L6.59558 12.6907H2.90254L1.77203 12.6914C1.56643 12.6914 1.36517 12.694 1.15916 12.6852C0.93147 12.6894 0.72457 12.4866 0.731364 12.2518C0.745464 11.7642 0.702125 11.2161 0.749099 10.7324C0.821446 10.038 1.10824 9.38354 1.56963 8.85987C2.18245 8.16282 3.00374 7.79174 3.92286 7.73307Z" fill="var(--fill-0, #8A94A6)"/>
<path id="Vector_2" d="M5.08964 1.31613C6.61731 1.22874 7.92673 2.396 8.01462 3.92363C8.10258 5.45125 6.93578 6.76106 5.40818 6.84953C3.87982 6.93807 2.56921 5.77055 2.48122 4.24216C2.39324 2.71377 3.56122 1.40357 5.08964 1.31613Z" fill="var(--fill-0, #8A94A6)"/>
<path id="Vector_3" d="M8.63846 1.31615C9.16385 1.2995 9.63596 1.4044 10.0984 1.66041C10.7388 2.01591 11.2124 2.61038 11.416 3.31396C11.6207 4.02316 11.5337 4.78477 11.1743 5.42953C10.8177 6.06873 10.224 6.54197 9.52132 6.74704C9.13142 6.88195 8.5596 6.88131 8.16145 6.7915C8.05093 6.76657 7.92229 6.71595 7.81674 6.70063L7.80469 6.69898C7.95542 6.52049 8.08725 6.38363 8.22554 6.19141C8.64826 5.59767 8.88253 4.89047 8.89793 4.16178C8.92228 3.11618 8.51962 2.22031 7.80624 1.47277C7.89965 1.45024 7.99073 1.41943 8.08445 1.39531C8.2754 1.34617 8.4427 1.32655 8.63846 1.31615Z" fill="var(--fill-0, #8A94A6)"/>
<path id="Vector_4" d="M9.01804 7.73263C9.33451 7.72686 9.75965 7.71755 10.0705 7.73337C10.9689 7.77432 11.813 8.17522 12.4123 8.84567C12.8923 9.38 13.187 10.055 13.2525 10.7704C13.2964 11.2384 13.2567 11.7563 13.2686 12.2303C13.2721 12.3737 13.2039 12.4999 13.0979 12.5942C13.0518 12.63 12.9747 12.6725 12.9171 12.6778C12.6721 12.7 12.3968 12.69 12.1494 12.6901L10.5652 12.6893C10.6112 12.5806 10.6455 12.3583 10.643 12.2365C10.6331 11.7569 10.6678 11.2494 10.629 10.7733C10.5622 9.83827 10.1846 8.95253 9.55657 8.25665C9.43469 8.12264 9.29944 7.98995 9.16449 7.86885C9.11891 7.82802 9.0633 7.79084 9.01562 7.75035L9.01804 7.73263Z" fill="var(--fill-0, #8A94A6)"/>
</g>
</svg>
