<svg preserveAspectRatio="none" width="100%" height="100%" overflow="visible" style="display: block;" viewBox="0 0 14 14" fill="none" xmlns="http://www.w3.org/2000/svg">
<g id="game_valut.svg">
<path id="Vector" d="M4.91791 1.31678L4.92856 1.31644C5.26562 1.30655 5.62041 1.31209 5.95948 1.31212L7.6988 1.31211L8.57475 1.312C9.15691 1.31214 9.65804 1.29847 10.183 1.59314C10.4764 1.75779 10.7629 1.99467 11.0315 2.2011C11.498 2.55991 11.9561 2.91083 12.3876 3.31158C12.9424 3.82686 13.2423 4.3631 13.2665 5.12912C13.2794 5.53148 13.1738 5.92476 12.977 6.27649C12.6821 6.80339 12.2599 7.31036 11.8755 7.77714L10.7307 9.16099L9.42058 10.7433C9.08279 11.1509 8.73971 11.5746 8.37548 11.9573C8.02369 12.323 7.60788 12.6541 7.08124 12.686C6.4711 12.723 5.99684 12.3586 5.5972 11.9384C5.30991 11.6363 5.04605 11.3161 4.77943 10.9951L3.53028 9.48704L2.20502 7.88614C1.82915 7.43149 1.42556 6.94829 1.11287 6.44952C0.894418 6.10107 0.746523 5.72024 0.729106 5.308C0.700678 4.63514 0.910307 4.03753 1.37213 3.54425C1.82092 3.06488 2.37556 2.65196 2.89489 2.24863C3.20491 2.00788 3.58356 1.69452 3.93238 1.52849C4.25619 1.37438 4.56495 1.33235 4.91791 1.31678ZM8.14759 5.3944C8.41375 5.37068 8.62662 5.19918 8.59442 4.91352C8.58144 4.79312 8.51999 4.68318 8.42417 4.60911C8.28339 4.50124 7.99911 4.52351 7.82419 4.52347L7.25088 4.52341C6.81216 4.52341 6.28543 4.50956 5.85613 4.52528C5.71109 4.53741 5.59982 4.55439 5.49819 4.67479C5.42223 4.76447 5.38527 4.88079 5.39553 4.99787C5.4067 5.11468 5.46406 5.2222 5.55486 5.29653C5.70619 5.41937 5.93575 5.39599 6.12133 5.39594L6.62714 5.39587C7.12671 5.39578 7.64976 5.40341 8.14759 5.3944Z" fill="var(--fill-0, #8A94A6)"/>
</g>
</svg>
